<?xml version="1.0" encoding="utf-8"?>
<!-- Generator: Adobe Illustrator 26.3.1, SVG Export Plug-In . SVG Version: 6.00 Build 0)  -->
<svg version="1.1" id="Layer_1" xmlns="http://www.w3.org/2000/svg" xmlns:xlink="http://www.w3.org/1999/xlink" x="0px" y="0px"
	 viewBox="0 0 1080 1080" style="enable-background:new 0 0 1080 1080;" xml:space="preserve">
<style type="text/css">
	.st0{fill:#020203;}
</style>
<g>
	<path class="st0" d="M362.57,696.79h31.34c14.76,0,18.51-3.15,18.51-8.47c0-5.2-3.51-8.59-14.03-8.59h-7.5
		c-19.12,0-28.31-9.56-28.31-25.29c0-16.09,10.16-25.41,36.54-25.41h27.46v16.94h-25.65c-15.12,0-19,3.15-19,8.47
		c0,5.2,3.63,8.35,14.03,8.35h7.5c19.24,0,28.31,9.8,28.31,25.53c0,16.09-9.92,25.41-35.93,25.41h-33.27V696.79z"/>
	<path class="st0" d="M515.98,629.04v24.2c0,15-10.4,28.19-28.19,28.79v31.7h-19.36v-31.82c-19.84-1.09-28.19-14.04-28.19-28.67
		v-24.2h19.36v20.93c0,11.74,6.41,15.12,13.79,15.12h8.35c7.38,0,14.88-3.39,14.88-15.12v-20.93H515.98z"/>
	<path class="st0" d="M526.87,646.83c0-14.76,6.78-19.6,20.81-19.6c10.28,0,17.66,3.15,20.93,13.67l17.18,55.05
		c0.48,1.45,1.45,2.66,2.9,2.66c1.81,0,2.3-2.06,2.3-3.51v-66.06h19.36v66.91c0,14.76-6.78,19.6-20.81,19.6
		c-10.28,0-17.54-3.02-20.93-13.67l-17.18-55.05c-0.36-1.33-1.45-2.66-2.9-2.66c-1.81,0-2.3,2.06-2.3,3.51v66.06h-19.36V646.83z"/>
	<path class="st0" d="M659.6,650.21c-1.69,0-3.63,2.06-5.08,6.05l-21.17,57.47h-20.57l26.86-72.96
		c3.02-8.11,11.25-13.55,19.96-13.55c9.2,0,16.82,5.44,19.84,13.67l26.74,72.83h-20.57l-21.05-57.35
		C663.11,652.27,661.42,650.21,659.6,650.21z"/>
	<path class="st0" d="M708.6,629.04h42.83c20.08,0,29.76,10.4,29.76,27.71c0,17.18-10.04,27.46-29.52,27.46h-23.71v29.64H708.6
		V629.04z M749.38,667.27c8.47,0,12.46-3.99,12.46-10.53c0-6.78-3.75-10.77-12.7-10.77h-21.17v21.29H749.38z"/>
	<path class="st0" d="M788.46,696.79h31.33c14.76,0,18.51-3.15,18.51-8.47c0-5.2-3.51-8.59-14.04-8.59h-7.5
		c-19.12,0-28.31-9.56-28.31-25.29c0-16.09,10.16-25.41,36.54-25.41h27.46v16.94h-25.65c-15.12,0-19,3.15-19,8.47
		c0,5.2,3.63,8.35,14.04,8.35h7.5c19.24,0,28.31,9.8,28.31,25.53c0,16.09-9.92,25.41-35.93,25.41h-33.27V696.79z"/>
	<path class="st0" d="M868.63,687.46c0-13.35,9.39-21.13,16-27.44c-6.31-5.72-13.65-11.01-13.65-24.8v-24.21h23.48v21.87
		c0,16.43,9.1,16.88,16.44,16.88h6.75c7.19,0,16.29-0.44,16.29-16.88v-21.87h23.48v24.21c0,13.79-7.34,19.08-13.65,24.8
		c6.6,6.31,16,14.09,16,27.44v26.27h-23.48v-26.27c0-14.67-12.33-17.17-18.78-17.17h-6.31c-6.75,0-19.08,2.5-19.08,17.17v26.27
		h-23.48V687.46z"/>
</g>
<g>
	<path d="M340.24,674.12c3.09,52.97-18.73,92.94-60.78,111.35c-41.93,18.35-89.01,10.13-119.68-20.92
		c-33.69-34.1-40.73-85.63-17.42-127.48c22.95-41.19,70.91-61.55,118.34-50.19c20.17,4.83,39.78,12.46,61.06,11.44
		c29.54-1.42,53.67-11.55,65.65-40.94c12.45-30.54,5.94-60.44-17.93-83.7c-23.31-22.71-46.58-26.95-77.34-14.09
		c-68.26,28.55-128.85,8.68-153.8-50.44c-23.03-54.56,2.01-116.01,56.69-139.15c52.19-22.09,115.98,2.13,137.77,52.11
		c5.79,13.28,6.32,27.3,7.54,41.37c5.88,68.12,48.46,97.46,113.89,78.72c42.74-12.24,71.58-3.88,94.97,27.54
		c22.78,30.61,24.17,71.87,3.43,102.22c-20.82,30.47-57.94,43.68-96.6,34.34c-10.82-2.61-21.46-6.24-32.42-7.93
		C369.84,590.1,337.09,620.06,340.24,674.12z"/>
	<path d="M508.01,347.05c0.48,39.05-27.86,68.09-66.65,68.28c-37.12,0.18-66.66-28.86-67.11-65.97
		c-0.46-38.15,29.33-68.59,67.06-68.5C478.76,280.96,507.55,309.52,508.01,347.05z"/>
	<path d="M317.08,481.82c26.85,0.11,46.57,19.21,47.01,45.55c0.44,26.5-21.1,48.67-47.18,48.56c-26.35-0.1-47.16-21.8-46.83-48.82
		C270.41,500.82,290.24,481.71,317.08,481.82z"/>
</g>
</svg>
